<?xml version="1.0" encoding="utf-8"?>
<!-- Generator: Adobe Illustrator 28.0.0, SVG Export Plug-In . SVG Version: 6.00 Build 0)  -->
<svg version="1.1" id="gift" xmlns="http://www.w3.org/2000/svg" xmlns:xlink="http://www.w3.org/1999/xlink" x="0px" y="0px"
	 viewBox="0 0 512 512" style="enable-background:new 0 0 512 512;" xml:space="preserve">
<style type="text/css">
	.st0{fill:#E53950;}
	.st1{fill:#CA2E43;}
	.st2{fill:#FFFFFF;}
	.st3{fill:#46CC8D;}
	.st4{fill:#FAC600;}
	.st5{fill:#DDDBD7;}
	.st6{fill:#00C27A;}
	.st7{fill:#08B865;}
	.st8{fill:#09A755;}
	.st9{fill:#282828;}
</style>
<path class="st0" d="M485,157.5v317c0,16.6-13.4,30-30,30c0,0,0,0,0,0H57c-16.6,0-30-13.4-30-30c0,0,0,0,0,0v-317H485z"/>
<path class="st1" d="M440,157.5v235c0,45.3-36.7,82-82,82l0,0H27c0,16.6,13.4,30,30,30l0,0h398c16.6,0,30-13.4,30-30l0,0v-317H440z"
	/>
<path class="st2" d="M22.5,82h467c8.3,0,15,6.7,15,15v45.5c0,8.3-6.7,15-15,15h-467c-8.3,0-15-6.7-15-15V97
	C7.5,88.7,14.2,82,22.5,82z"/>
<path class="st2" d="M489.5,82h-15c0,25.1-20.4,45.5-45.5,45.5c0,0,0,0,0,0h-26.9c-9.4,0-17-7.6-17-17c0,0,0-0.1,0-0.1
	c0.1-26.1,0.2-72.9,0.2-72.9c0-8.3-6.7-15-15-15c-1.5,0-2.9,0.2-4.4,0.6l-86,26.1c4.9,5.7,7.6,13,7.6,20.5v3.4l2.5-1.7
	c2.3-1.5,5.4-0.9,6.9,1.4l36.3,54.6H7.5v15c0,8.3,6.7,15,15,15l0,0h467c8.3,0,15-6.7,15-15l0,0V97C504.5,88.7,497.8,82,489.5,82
	L489.5,82z"/>
<path class="st2" d="M216.5,157.5h79v347h-79V157.5z"/>
<path class="st2" d="M216.5,474.2h79v30.3h-79V474.2z M216.5,82v113.5l17.4-26.1c4.9-7.4,13.2-11.8,22.1-11.8
	c8.9,0,17.2,4.4,22.1,11.8l17.4,26.1V82H216.5z"/>
<path class="st1" d="M216.5,194.8l-22.9,35.1c-1.5,2.3-4.6,2.9-6.9,1.4c-0.6-0.4-1.2-1-1.6-1.7l-11.7-20.2c-0.8-1.3-2.1-2.2-3.7-2.4
	l-23.2-3c-2.7-0.4-4.7-2.9-4.3-5.6c0.1-0.8,0.4-1.5,0.8-2.1l25.8-38.7l47.7,23L216.5,194.8z"/>
<path class="st3" d="M265.7,106.6l-0.7,1.1l-9,13.5l-1.4,2.1l-61,91.6c-1.5,2.3-4.6,2.9-6.9,1.4c-0.6-0.4-1.2-1-1.6-1.7l-11.7-20.2
	c-0.8-1.3-2.1-2.2-3.7-2.4l-23.2-3c-2.7-0.4-4.7-2.9-4.3-5.6c0.1-0.8,0.4-1.5,0.8-2.1l34.9-52.5l37.1-55.7c1.5-2.3,4.6-2.9,6.9-1.4
	l2.5,1.7l12.8,8.5L256,94.2l8.3,5.5C266.6,101.2,267.2,104.3,265.7,106.6z"/>
<path class="st1" d="M365.5,203.9l-23.2,3c-1.5,0.2-2.9,1.1-3.7,2.4l-11.7,20.2c-1.4,2.4-4.4,3.2-6.8,1.8c-0.7-0.4-1.2-0.9-1.7-1.6
	l-22.9-34.4v-22.5l-15-15.4h62.7l25.8,38.7c1.5,2.3,0.9,5.4-1.4,6.9C367,203.5,366.2,203.8,365.5,203.9L365.5,203.9z"/>
<path class="st4" d="M295.5,157.5h-10.3l10.3,15.4V157.5z"/>
<path class="st3" d="M365.5,188.9l-23.2,3c-1.5,0.2-2.9,1.1-3.7,2.4l-11.7,20.2c-1.4,2.4-4.4,3.2-6.8,1.8c-0.7-0.4-1.2-0.9-1.7-1.6
	l-61-91.6l-1.4-2.1l-9-13.5l-0.7-1.1c-1.5-2.3-0.9-5.4,1.4-6.9l8.3-5.5l18.7-12.5l12.8-8.5l2.5-1.7c2.3-1.5,5.4-0.9,6.9,1.4
	l37.1,55.7l35,52.5c1.5,2.3,0.9,5.4-1.4,6.9C367,188.5,366.2,188.8,365.5,188.9L365.5,188.9z"/>
<path class="st5" d="M232.1,49.3c-4.9,5.7-7.6,13-7.6,20.5v3.4l-2.5-1.7c-2.3-1.5-5.4-0.9-6.9,1.4L178,128.7l-31.9,9.7
	c-7.9,2.4-16.3-2.1-18.7-10c-0.4-1.4-0.6-2.9-0.6-4.4V37.5c0-8.3,6.7-15,15-15c1.5,0,2.9,0.2,4.4,0.6L232.1,49.3z"/>
<path class="st6" d="M274.7,62.3v37l-8.6,2.6L256,105l-9,2.7l-15,4.6L178,128.7L215.1,73c1.5-2.3,4.6-2.9,6.9-1.4l2.5,1.7v-3.4
	c0-7.5,2.7-14.8,7.6-20.5l23.9,7.3L274.7,62.3z"/>
<path class="st6" d="M337.8,134.4l-72.9-22.2l-15-4.6l-9-2.7l-10.1-3.1l-8.6-2.6v-37l18.7-5.7l23.9-7.3c4.9,5.7,7.6,13,7.6,20.5v3.4
	l2.5-1.7c2.3-1.5,20.4-0.9,21.9,1.4L337.8,134.4z"/>
<path class="st6" d="M287.5,69.8v22c0,16.9-13.3,30.7-30.1,31.5h-2.8c-16.8-0.7-30.1-14.6-30.1-31.5v-22c0-17.4,14.1-31.5,31.5-31.5
	c8.4,0,16.4,3.3,22.3,9.2c0.6,0.6,1.1,1.2,1.7,1.8C284.8,55,287.5,62.3,287.5,69.8L287.5,69.8z"/>
<path class="st3" d="M232,97.3l-85.9,26.1c-7.9,2.4-16.3-2.1-18.7-10c-0.4-1.4-0.6-2.9-0.6-4.4V22.5c0-8.3,6.7-15,15-15
	c1.5,0,2.9,0.2,4.4,0.6L232,34.3l42.7,13"/>
<path class="st3" d="M237.3,84.3l128.6,39.1c7.9,2.4,16.3-2.1,18.7-10c0.4-1.4,0.6-2.9,0.6-4.4V22.5c0-8.3-6.7-15-15-15
	c-1.5,0-2.9,0.2-4.4,0.6L237.3,47.3V84.3z"/>
<path class="st6" d="M327.3,73.3h-39.8c-4.1,0-7.5-3.4-7.5-7.5s3.4-7.5,7.5-7.5h39.8c4.1,0,7.5,3.4,7.5,7.5S331.4,73.3,327.3,73.3z
	 M224.5,73.3h-39.8c-4.1,0-7.5-3.4-7.5-7.5s3.4-7.5,7.5-7.5h39.8c4.1,0,7.5,3.4,7.5,7.5S228.6,73.3,224.5,73.3L224.5,73.3z"/>
<path class="st7" d="M256,23.3L256,23.3c17.4,0,31.5,14.1,31.5,31.5v22c0,17.4-14.1,31.5-31.5,31.5l0,0c-17.4,0-31.5-14.1-31.5-31.5
	v-22C224.5,37.4,238.6,23.3,256,23.3z"/>
<path class="st8" d="M269.5,26.3c2,4.2,3,8.8,3,13.5v22c0,17.4-14.1,31.5-31.5,31.5l0,0c-4.7,0-9.3-1-13.5-3c5.2,11,16.3,18,28.5,18
	c17.4,0,31.5-14.1,31.5-31.5v-22C287.5,42.6,280.5,31.5,269.5,26.3L269.5,26.3z"/>
<path class="st9" d="M489.5,74.5h-96.7v-52c0-12.4-10.1-22.5-22.5-22.5c-2.2,0-4.4,0.3-6.5,1l-81.6,24.8
	c-14.8-13.4-37.4-13.4-52.2,0L148.3,1c-11.9-3.6-24.5,3.1-28.1,15c-0.6,2.1-1,4.3-1,6.5v52H22.5C10.1,74.5,0,84.6,0,97v45.5
	c0,11.3,8.3,20.8,19.5,22.3v309.7c0,20.7,16.8,37.5,37.5,37.5h398c20.7,0,37.5-16.8,37.5-37.5V164.8c11.2-1.5,19.5-11,19.5-22.3V97
	C512,84.6,501.9,74.5,489.5,74.5z M293.3,109.1c4,1.2,8.2-1,9.4-5c1.2-4-1-8.2-5-9.4l-6.2-1.9c2.3-5.1,3.5-10.6,3.5-16.1v-3.5h32.3
	c4.1,0,7.5-3.4,7.5-7.5s-3.4-7.5-7.5-7.5H295v-3.5c0-5.6-1.2-11.1-3.5-16.1l76.6-23.3c4-1.2,8.2,1,9.4,5c0.2,0.7,0.3,1.4,0.3,2.2
	v58.3c-0.1,0.8-0.1,1.6,0,2.4V109c0,4.1-3.4,7.5-7.5,7.5c-0.7,0-1.5-0.1-2.2-0.3l-44.4-13.5c-0.2-0.1-0.5-0.1-0.7-0.2
	c-0.1,0-0.1,0-0.2,0c-0.2,0-0.3-0.1-0.5-0.1c-0.1,0-0.2,0-0.3,0c-0.1,0-0.3,0-0.4,0c-0.1,0-0.2,0-0.3,0c-0.1,0-0.3,0-0.4,0
	c-0.1,0-0.2,0-0.3,0c-0.2,0-0.3,0-0.5,0.1c-0.1,0-0.1,0-0.2,0c-0.2,0-0.3,0.1-0.5,0.1c-0.1,0-0.1,0-0.2,0.1
	c-0.2,0.1-0.3,0.1-0.5,0.2c-0.1,0-0.1,0.1-0.2,0.1c-0.2,0.1-0.3,0.1-0.5,0.2c-0.2,0.1-0.4,0.2-0.6,0.4l0,0c0,0,0,0-0.1,0
	c-0.2,0.1-0.4,0.3-0.5,0.4c-0.1,0.1-0.1,0.1-0.2,0.2c-0.1,0.1-0.2,0.2-0.4,0.3c-0.1,0.1-0.1,0.2-0.2,0.2c-0.1,0.1-0.2,0.2-0.3,0.3
	c-0.1,0.1-0.1,0.2-0.2,0.3c-0.1,0.1-0.2,0.2-0.2,0.3c-0.1,0.1-0.1,0.2-0.2,0.3c-0.1,0.1-0.1,0.2-0.2,0.3c-0.1,0.1-0.1,0.3-0.2,0.4
	c0,0.1-0.1,0.2-0.1,0.3c-0.1,0.2-0.2,0.4-0.2,0.6c0,0,0,0.1,0,0.1l0,0c-0.1,0.2-0.1,0.5-0.2,0.7c0,0.1,0,0.3-0.1,0.4
	c0,0.1,0,0.2,0,0.3c0,0.2,0,0.3,0,0.5c0,0.1,0,0.2,0,0.3c0,0.1,0,0.3,0,0.4c0,0.1,0,0.2,0,0.3c0,0.1,0,0.3,0.1,0.4
	c0,0.1,0,0.2,0.1,0.4c0,0.1,0,0.2,0.1,0.3c0,0.1,0.1,0.3,0.1,0.4c0,0.1,0.1,0.2,0.1,0.3c0,0.1,0.1,0.3,0.1,0.4
	c0,0.1,0.1,0.2,0.1,0.3c0.1,0.1,0.1,0.2,0.2,0.3c0.1,0.2,0.2,0.4,0.4,0.6l0,0l31.6,47.4c0.1,0.1,0.2,0.3,0.3,0.4l13.4,20.1
	l-21.6,2.8c-2.3,0.3-4.4,1.7-5.5,3.7l-10.9,18.9l-20.7-31l0-0.1L265,121.1l5.4-8.2c4.3-1.7,8.2-4.2,11.6-7.3L293.3,109.1z M232,54.8
	c0-13.3,10.7-24,24-24c13.3,0,24,10.7,24,24v22c0,10-6.2,19-15.6,22.5c-0.7,0.1-1.4,0.3-2.1,0.7c-12.8,3.5-26-4-29.5-16.8
	c-0.6-2.1-0.9-4.2-0.9-6.4L232,54.8z M134.2,22.5c0-4.1,3.4-7.5,7.5-7.5c0.7,0,1.5,0.1,2.2,0.3l76.6,23.3
	c-2.3,5.1-3.5,10.6-3.5,16.1v3.5h-32.3c-4.1,0-7.5,3.4-7.5,7.5s3.4,7.5,7.5,7.5H217v3.5c0,5.6,1.2,11.1,3.5,16.1l-32.2,9.8l0,0
	l-44.4,13.5c-4,1.2-8.2-1-9.4-5c-0.2-0.7-0.3-1.4-0.3-2.2L134.2,22.5z M22.5,150c-4.1,0-7.5-3.4-7.5-7.5V97c0-4.1,3.4-7.5,7.5-7.5
	h96.7V109c0,12.4,10,22.5,22.4,22.5c2.2,0,4.5-0.3,6.6-1l24.4-7.4L154.8,150L22.5,150z M209,497H57c-12.4,0-22.5-10.1-22.5-22.5V165
	h110.3l-12.5,18.7c-2.3,3.4-1.4,8.1,2.1,10.4c1,0.6,2.1,1,3.2,1.2l29.9,3.9l15.1,26.1c1.3,2.2,3.7,3.7,6.3,3.7c0.1,0,0.2,0,0.2,0
	c2.5,0,4.9-1.3,6.2-3.3l13.6-20.5L209,497z M210.3,176.3l-20.7,31.1l-10.9-18.9c-1.2-2-3.2-3.4-5.5-3.7l-21.6-2.8l13.5-20.3l0,0
	l30.2-45.4l34.7-10.5c5.8,5.3,13.1,8.6,20.9,9.7l-0.5,0.8c-0.4,0.5-0.8,1-1,1.5L210.3,176.3L210.3,176.3z M477.5,474.5
	c0,12.4-10.1,22.5-22.5,22.5H303v-54.1c0-4.1-3.4-7.5-7.5-7.5s-7.5,3.4-7.5,7.5V497h-64l0-314.3l32-48l32,48.1v230.2
	c0,4.1,3.4,7.5,7.5,7.5s7.5-3.4,7.5-7.5V205.3l13.6,20.4c1.4,2.1,3.7,3.3,6.2,3.3c0.1,0,0.2,0,0.2,0c2.6-0.1,5-1.5,6.3-3.7
	l15.1-26.1l29.9-3.9c4.1-0.5,7-4.3,6.5-8.4c-0.1-1.1-0.6-2.2-1.2-3.2L367.2,165h110.3V474.5z M497,142.5c0,4.1-3.4,7.5-7.5,7.5
	H357.2l-17.9-26.9l24.4,7.4c2.1,0.7,4.4,1,6.6,1c12.4-0.1,22.4-10.1,22.4-22.5V89.5h96.7c4.1,0,7.5,3.4,7.5,7.5V142.5z"/>
</svg>
